# xmcd
# 
# Track frame offsets:
#     150
#     36120
#     66065
#     87365
#     117945
#     150492
#     177207
#     203697
# 
# Disc length: 2953
# 
# Revision: 1
# Processed by: cddbd v1.5.2PL0 Copyright (c) Steve Scherf et al.
# Submitted via: BonkEnc v1.0.8
# 
DISCID=5e0b8708
DTITLE=Richie Beirach, Dave Liebman - Omerta
DYEAR=1978
DGENRE=Contemporary Jazz
TTITLE0=Omerta
TTITLE1=On Green Dolphin Street
TTITLE2=3rd. Visit
TTITLE3=Eden
TTITLE4=Spring is Here
TTITLE5=Cadaques
TTITLE6=To a Spirit Once Known
TTITLE7=In a Sentimental Mood
EXTD=
EXTT0=
EXTT1=
EXTT2=
EXTT3=
EXTT4=
EXTT5=
EXTT6=
EXTT7=
PLAYORDER=
